<mxfile host="app.diagrams.net" modified="2021-06-25T08:57:36.713Z" agent="5.0 (Windows NT 10.0; Win64; x64) AppleWebKit/537.36 (KHTML, like Gecko) Chrome/91.0.4472.114 Safari/537.36" etag="vLwDN3S7dMWGVOn5V_3M" version="14.8.0" type="github">
  <diagram id="exuY5DLc0nuOLAwkTN-w" name="ceph_spdk_target">
    <mxGraphModel dx="981" dy="637" grid="1" gridSize="10" guides="1" tooltips="1" connect="1" arrows="1" fold="1" page="1" pageScale="1" pageWidth="827" pageHeight="1169" math="0" shadow="0">
      <root>
        <mxCell id="0" />
        <mxCell id="1" parent="0" />
        <mxCell id="AhevXDaawYz7ztyipvcI-9" value="" style="rounded=1;whiteSpace=wrap;html=1;arcSize=6;fillColor=#d5e8d4;strokeColor=#82b366;" vertex="1" parent="1">
          <mxGeometry x="80" y="180" width="160" height="90" as="geometry" />
        </mxCell>
        <mxCell id="AhevXDaawYz7ztyipvcI-12" style="edgeStyle=orthogonalEdgeStyle;rounded=0;orthogonalLoop=1;jettySize=auto;html=1;entryX=0.5;entryY=0;entryDx=0;entryDy=0;" edge="1" parent="1" source="AhevXDaawYz7ztyipvcI-1" target="AhevXDaawYz7ztyipvcI-10">
          <mxGeometry relative="1" as="geometry" />
        </mxCell>
        <mxCell id="AhevXDaawYz7ztyipvcI-1" value="" style="rounded=1;whiteSpace=wrap;html=1;arcSize=6;fillColor=#fff2cc;strokeColor=#d6b656;" vertex="1" parent="1">
          <mxGeometry x="80" y="110" width="160" height="50" as="geometry" />
        </mxCell>
        <mxCell id="AhevXDaawYz7ztyipvcI-3" value="&lt;font style=&quot;font-size: 12px&quot;&gt;initiator&lt;/font&gt;" style="text;html=1;strokeColor=none;fillColor=none;align=center;verticalAlign=middle;whiteSpace=wrap;rounded=0;" vertex="1" parent="1">
          <mxGeometry x="140" y="125" width="40" height="20" as="geometry" />
        </mxCell>
        <mxCell id="AhevXDaawYz7ztyipvcI-7" value="spdk(iSCSI tgt)" style="rounded=1;whiteSpace=wrap;html=1;" vertex="1" parent="1">
          <mxGeometry x="100" y="210" width="120" height="30" as="geometry" />
        </mxCell>
        <mxCell id="AhevXDaawYz7ztyipvcI-16" style="edgeStyle=orthogonalEdgeStyle;rounded=0;orthogonalLoop=1;jettySize=auto;html=1;entryX=0.5;entryY=0;entryDx=0;entryDy=0;" edge="1" parent="1" source="AhevXDaawYz7ztyipvcI-8" target="AhevXDaawYz7ztyipvcI-4">
          <mxGeometry relative="1" as="geometry" />
        </mxCell>
        <mxCell id="AhevXDaawYz7ztyipvcI-8" value="bdev/librbd" style="rounded=1;whiteSpace=wrap;html=1;" vertex="1" parent="1">
          <mxGeometry x="100" y="240" width="120" height="30" as="geometry" />
        </mxCell>
        <mxCell id="AhevXDaawYz7ztyipvcI-10" value="&lt;font style=&quot;font-size: 12px&quot;&gt;spdk&lt;/font&gt;" style="text;html=1;strokeColor=none;fillColor=none;align=center;verticalAlign=middle;whiteSpace=wrap;rounded=0;" vertex="1" parent="1">
          <mxGeometry x="140" y="180" width="40" height="20" as="geometry" />
        </mxCell>
        <mxCell id="AhevXDaawYz7ztyipvcI-15" value="" style="group" vertex="1" connectable="0" parent="1">
          <mxGeometry x="80" y="290" width="180" height="60" as="geometry" />
        </mxCell>
        <mxCell id="AhevXDaawYz7ztyipvcI-4" value="" style="rounded=1;whiteSpace=wrap;html=1;arcSize=4;fillColor=#f8cecc;strokeColor=#b85450;" vertex="1" parent="AhevXDaawYz7ztyipvcI-15">
          <mxGeometry width="160" height="40" as="geometry" />
        </mxCell>
        <mxCell id="AhevXDaawYz7ztyipvcI-13" value="" style="rounded=1;whiteSpace=wrap;html=1;arcSize=4;fillColor=#f8cecc;strokeColor=#b85450;" vertex="1" parent="AhevXDaawYz7ztyipvcI-15">
          <mxGeometry x="10" y="10" width="160" height="40" as="geometry" />
        </mxCell>
        <mxCell id="AhevXDaawYz7ztyipvcI-14" value="ceph cluster" style="rounded=1;whiteSpace=wrap;html=1;arcSize=4;fillColor=#f8cecc;strokeColor=#b85450;" vertex="1" parent="AhevXDaawYz7ztyipvcI-15">
          <mxGeometry x="20" y="20" width="160" height="40" as="geometry" />
        </mxCell>
      </root>
    </mxGraphModel>
  </diagram>
</mxfile>
